<svg width="96" height="111" viewBox="0 0 96 111" fill="none" xmlns="http://www.w3.org/2000/svg">
<path d="M0.200245 51.791C0.200245 42.9043 1.49191 35.1026 4.07524 28.386C6.76191 21.566 10.4819 16.141 15.2352 12.111C20.0919 8.08097 25.5686 5.0843 31.6652 3.12097C37.7619 1.15764 44.4786 0.175971 51.8152 0.175971C65.0419 0.175971 75.6336 3.3793 83.5902 9.78597C91.6502 16.1926 95.6802 25.2343 95.6802 36.911C95.6802 42.5943 94.8019 47.6576 93.0453 52.101C91.3919 56.441 88.8086 60.2126 85.2953 63.416C81.7819 66.516 77.8552 69.2026 73.5152 71.476C69.1752 73.7493 63.7502 75.7643 57.2402 77.521C50.8336 79.2776 44.4786 80.8276 38.1752 82.171C31.8719 83.411 24.4319 84.806 15.8552 86.356C12.3419 86.976 9.70691 87.441 7.95024 87.751V93.951L23.4502 89.301H95.6802V111.001H1.75024V67.601C19.2136 65.2243 32.1819 62.7443 40.6552 60.161C60.8052 54.1676 70.8802 46.056 70.8802 35.826C70.8802 31.8993 69.3819 28.5926 66.3852 25.906C63.3886 23.2193 58.6352 21.876 52.1252 21.876C42.7219 21.876 35.8502 24.2526 31.5102 29.006C27.1702 33.7593 25.0002 41.3543 25.0002 51.791H0.200245Z" fill="#FF6A3B" fill-opacity="0.17"/>
</svg>
