<svg width="99" height="113" viewBox="0 0 99 113" fill="none" xmlns="http://www.w3.org/2000/svg">
<path d="M0.65 69.306H25.45C25.45 77.7793 27.31 83.5143 31.03 86.511C34.8533 89.4043 41.725 90.851 51.645 90.851C59.6017 90.851 65.285 89.8693 68.695 87.906C72.105 85.9426 73.81 82.7393 73.81 78.296C73.81 69.8226 68.7983 65.586 58.775 65.586H43.585V43.886H58.775C67.765 43.886 72.26 40.2176 72.26 32.881C72.26 29.0576 70.71 26.2676 67.61 24.511C64.6133 22.7543 59.2917 21.876 51.645 21.876C42.1383 21.876 35.6283 23.116 32.115 25.596C28.705 27.9726 27 32.3643 27 38.771H2.2C2.2 25.441 6.64333 15.676 15.53 9.47597C24.52 3.27597 36.5583 0.175971 51.645 0.175971C65.285 0.175971 76.2383 2.70764 84.505 7.77098C92.875 12.8343 97.06 20.171 97.06 29.781C97.06 33.7076 96.3883 37.0143 95.045 39.701C93.805 42.3876 91.8417 44.506 89.155 46.056C86.4683 47.606 83.8333 48.7426 81.25 49.466C78.6667 50.1893 75.3083 50.9126 71.175 51.636V57.836C74.6883 58.3526 77.4783 58.8176 79.545 59.231C81.6117 59.541 83.9883 60.2643 86.675 61.401C89.465 62.4343 91.5833 63.726 93.03 65.276C94.58 66.826 95.8717 68.996 96.905 71.786C98.0417 74.4726 98.61 77.676 98.61 81.396C98.61 91.7293 94.2183 99.531 85.435 104.801C76.755 109.968 65.4917 112.551 51.645 112.551C44.3083 112.551 37.695 111.828 31.805 110.381C25.915 108.934 20.5417 106.609 15.685 103.406C10.9317 100.099 7.21167 95.6043 4.525 89.921C1.94167 84.1343 0.65 77.2626 0.65 69.306Z" fill="#FF6A3B" fill-opacity="0.17"/>
</svg>
