<svg width="84" height="85" viewBox="0 0 84 85" fill="none" xmlns="http://www.w3.org/2000/svg">
<g clip-path="url(#clip0_1_129)">
<path d="M77.4375 11.8436H6.5625C3.663 11.8436 1.3125 14.2211 1.3125 17.1539V62.292C1.3125 65.2248 3.663 67.6024 6.5625 67.6024H77.4375C80.337 67.6024 82.6875 65.2248 82.6875 62.292V17.1539C82.6875 14.2211 80.337 11.8436 77.4375 11.8436Z" fill="#FFF0ED"/>
<path d="M82.6875 56.9816V62.292C82.6833 63.6991 82.1289 65.0474 81.1452 66.0423C80.1616 67.0373 78.8286 67.5981 77.4375 67.6024H6.5625C5.17139 67.5981 3.83845 67.0373 2.85478 66.0423C1.87111 65.0474 1.31665 63.6991 1.3125 62.292V56.9816H82.6875Z" fill="#FFF0ED"/>
<path d="M59.0625 83.5334H24.9375L29.1375 80.3472C31.0936 78.8633 32.6812 76.9391 33.7747 74.727C34.8682 72.5148 35.4375 70.0756 35.4375 67.6024H48.5625C48.5625 70.0756 49.1318 72.5148 50.2253 74.727C51.3188 76.9391 52.9064 78.8633 54.8625 80.3472L59.0625 83.5334Z" fill="#FFF0ED"/>
<path d="M82.7137 6.53318C82.7179 7.23051 82.5828 7.9215 82.3167 8.56479C82.0506 9.20808 81.6589 9.79044 81.165 10.277L79.3275 12.1622L71.8987 4.64801L73.7625 2.78938C74.245 2.29131 74.8208 1.89562 75.4564 1.62549C76.0919 1.35536 76.7744 1.21622 77.4637 1.21622C78.1531 1.21622 78.8356 1.35536 79.4711 1.62549C80.1067 1.89562 80.6825 2.29131 81.165 2.78938C81.6589 3.27593 82.0506 3.85829 82.3167 4.50158C82.5828 5.14487 82.7179 5.83586 82.7137 6.53318Z" fill="#FFC6B5"/>
<path d="M71.9001 4.64711L44.0485 32.8189L51.4768 40.3327L79.3284 12.1608L71.9001 4.64711Z" fill="#FF6A3B"/>
<path d="M51.4763 40.3336L42.21 42.2188L44.0475 32.8195L51.4763 40.3336Z" fill="#FFC6B5"/>
<path d="M36.8104 44.1226C35.8849 44.9307 34.809 45.5434 33.6459 45.9246C32.4828 46.3059 31.256 46.4479 30.0379 46.3423C29.1389 46.254 28.2679 45.9776 27.4802 45.5306C26.6926 45.0835 26.0054 44.4756 25.4625 43.7455C24.3298 42.1637 23.69 40.2757 23.625 38.3237C23.5928 37.2991 23.6173 36.2734 23.6985 35.2516C23.9403 33.2373 23.814 31.1951 23.3258 29.227C22.9069 27.8818 22.2195 26.6379 21.306 25.5724C20.3926 24.5068 19.2726 23.6424 18.0154 23.0325C16.6048 22.3277 15.0695 21.9145 13.4992 21.8169C11.9289 21.7194 10.3551 21.9394 8.86988 22.4643C8.70208 22.5192 8.54695 22.6078 8.41375 22.7247C8.28055 22.8416 8.17202 22.9845 8.09463 23.1448C8.01724 23.3051 7.97259 23.4796 7.96334 23.6577C7.95408 23.8359 7.98042 24.0141 8.04078 24.1817C8.10114 24.3493 8.19427 24.5029 8.31463 24.6333C8.43498 24.7637 8.58008 24.8682 8.74127 24.9407C8.90245 25.0131 9.07641 25.0519 9.25275 25.0548C9.4291 25.0577 9.60421 25.0246 9.76763 24.9575C10.9185 24.5499 12.1383 24.3789 13.3553 24.4546C14.5724 24.5303 15.7623 24.8511 16.8551 25.3982C17.7925 25.8501 18.6283 26.4916 19.3109 27.283C19.9936 28.0745 20.5086 28.999 20.8241 29.9997C21.2092 31.6627 21.298 33.3818 21.0866 35.0764C20.9927 36.2039 20.9638 37.3361 21 38.467C21.0908 40.9482 21.9136 43.3451 23.3625 45.3493C24.1184 46.3726 25.0775 47.2246 26.1783 47.8506C27.2791 48.4766 28.4972 48.8628 29.7544 48.9842C30.1249 49.0247 30.4973 49.0451 30.87 49.0453C33.6748 49.0125 36.3795 47.9865 38.514 46.1458C38.6453 46.0329 38.7534 45.8948 38.832 45.7396C38.9106 45.5844 38.9582 45.415 38.9721 45.2412C38.986 45.0674 38.9659 44.8925 38.913 44.7265C38.86 44.5606 38.7753 44.4068 38.6636 44.2739C38.5519 44.1411 38.4155 44.0318 38.262 43.9523C38.1086 43.8728 37.9412 43.8246 37.7693 43.8106C37.5975 43.7965 37.4246 43.8168 37.2605 43.8704C37.0964 43.9239 36.9443 44.0096 36.813 44.1226H36.8104ZM81.4354 11.902L82.1021 11.2276C83.3324 9.98275 84.0235 8.29467 84.0235 6.53452C84.0235 4.77437 83.3324 3.08629 82.1021 1.84149C80.8521 0.634694 79.1905 -0.0386353 77.4624 -0.0386353C75.7344 -0.0386353 74.0728 0.634694 72.8228 1.84149L70.9721 3.71339L64.2469 10.516H6.5625C4.82202 10.516 3.15282 11.2153 1.92211 12.4602C0.691404 13.705 0 15.3934 0 17.1539L0 62.292C0 64.0525 0.691404 65.7409 1.92211 66.9857C3.15282 68.2306 4.82202 68.9299 6.5625 68.9299H34.0463C33.8611 70.9618 33.2589 72.9323 32.2781 74.7153C31.2972 76.4984 29.9594 78.0548 28.35 79.2851L24.15 82.4714C23.9296 82.6385 23.7668 82.8716 23.6847 83.1376C23.6026 83.4035 23.6052 83.6889 23.6924 83.9532C23.7795 84.2176 23.9466 84.4475 24.1701 84.6104C24.3935 84.7733 24.662 84.861 24.9375 84.861H59.0625C59.338 84.861 59.6065 84.7733 59.8299 84.6104C60.0534 84.4475 60.2205 84.2176 60.3077 83.9532C60.3948 83.6889 60.3974 83.4035 60.3153 83.1376C60.2332 82.8716 60.0704 82.6385 59.85 82.4714L55.65 79.2851C54.0406 78.0548 52.7028 76.4984 51.722 74.7153C50.7411 72.9323 50.1389 70.9618 49.9538 68.9299H77.4375C79.178 68.9299 80.8472 68.2306 82.0779 66.9857C83.3086 65.7409 84 64.0525 84 62.292V17.1539C83.9985 16.1386 83.7667 15.1372 83.3226 14.2267C82.8784 13.3162 82.2337 12.5209 81.438 11.902H81.4354ZM65.6854 12.8286C65.7244 12.7939 65.7613 12.7566 65.7956 12.7171L71.8961 6.53319L77.4664 12.1648L51.912 38.0157C50.6694 35.605 48.7251 33.6383 46.3418 32.3814L65.6854 12.8286ZM49.5863 39.3592L43.8716 40.5142L45.0135 34.7312C46.9859 35.7422 48.5879 37.3635 49.5863 39.3592ZM54.075 81.4093L55.125 82.2058H28.875L29.925 81.4093C31.8622 79.932 33.4676 78.0558 34.635 75.9046C35.8024 73.7534 36.5054 71.3762 36.6975 68.9299H47.3025C47.4946 71.3762 48.1976 73.7534 49.365 75.9046C50.5325 78.0558 52.1378 79.932 54.075 81.4093ZM81.375 62.292C81.375 63.3483 80.9602 64.3613 80.2217 65.1082C79.4833 65.8551 78.4818 66.2747 77.4375 66.2747H6.5625C5.51821 66.2747 4.51669 65.8551 3.77827 65.1082C3.03984 64.3613 2.625 63.3483 2.625 62.292V58.3092H81.375V62.292ZM81.375 55.654H2.625V17.1539C2.625 16.0976 3.03984 15.0846 3.77827 14.3377C4.51669 13.5908 5.51821 13.1711 6.5625 13.1711H61.6219L43.1235 31.8795C42.9403 32.0644 42.8151 32.3 42.7639 32.5566L40.908 41.9453C40.8691 42.1382 40.8731 42.3375 40.9196 42.5287C40.9662 42.7198 41.0543 42.8981 41.1774 43.0506C41.3005 43.2031 41.4556 43.326 41.6315 43.4104C41.8074 43.4947 41.9996 43.5385 42.1943 43.5384C42.2824 43.5384 42.3703 43.5295 42.4568 43.5119L51.7388 41.6347C51.7571 41.6347 51.7703 41.6134 51.7886 41.6081C51.807 41.6028 51.8595 41.6081 51.8963 41.5895C52.0763 41.5266 52.2403 41.4241 52.3766 41.2895L52.4108 41.2709L79.5375 13.8323C80.0957 14.1845 80.5569 14.6736 80.8781 15.2543C81.1993 15.8351 81.3703 16.4885 81.375 17.1539V55.654ZM80.2489 9.35034L79.3196 10.2903L73.7625 4.65598L74.6918 3.71605C75.4421 2.99257 76.4389 2.58899 77.4756 2.58899C78.5122 2.58899 79.509 2.99257 80.2594 3.71605C80.9976 4.46293 81.4122 5.47578 81.4122 6.53187C81.4122 7.58795 80.9976 8.60081 80.2594 9.34768L80.2489 9.35034Z" fill="#221F1C"/>
</g>
<defs>
<clipPath id="clip0_1_129">
<rect width="84" height="85" fill="white"/>
</clipPath>
</defs>
</svg>
