<svg width="37" height="37" viewBox="0 0 37 37" fill="none" xmlns="http://www.w3.org/2000/svg">
<g clip-path="url(#clip0_105_11)">
<path d="M33.9168 37.0008H3.08351C2.15851 37.0008 1.54185 36.3841 1.54185 35.4591V16.9591C1.54185 16.0341 2.15851 15.4175 3.08351 15.4175H33.9168C34.8418 15.4175 35.4585 16.0341 35.4585 16.9591V35.4591C35.4585 36.3841 34.8418 37.0008 33.9168 37.0008ZM4.62518 33.9175H32.3752V18.5008H4.62518V33.9175Z" fill="#FF6A3B"/>
<path d="M35.4585 18.501H1.54185C0.61685 18.501 0.000183105 17.8843 0.000183105 16.9593V10.7926C0.000183105 9.86764 0.61685 9.25098 1.54185 9.25098H35.4585C36.3835 9.25098 37.0002 9.86764 37.0002 10.7926V16.9593C37.0002 17.8843 36.3835 18.501 35.4585 18.501ZM3.08352 15.4176H33.9168V12.3343H3.08352V15.4176Z" fill="#FF6A3B"/>
<path d="M18.5002 37.001C17.5752 37.001 16.9585 36.3843 16.9585 35.4593V10.7926C16.9585 9.86764 17.5752 9.25098 18.5002 9.25098C19.4252 9.25098 20.0418 9.86764 20.0418 10.7926V35.4593C20.0418 36.3843 19.4252 37.001 18.5002 37.001ZM23.1252 12.3343C22.2002 12.3343 21.5835 11.7176 21.5835 10.7926C21.5835 9.86764 22.2002 9.25098 23.1252 9.25098C24.821 9.25098 26.2085 7.86348 26.2085 6.16764C26.2085 4.47181 24.821 3.08431 23.1252 3.08431C21.4293 3.08431 20.0418 4.47181 20.0418 6.16764C20.0418 7.09264 19.4252 7.70931 18.5002 7.70931C17.5752 7.70931 16.9585 7.09264 16.9585 6.16764C16.9585 2.77598 19.7335 0.000976562 23.1252 0.000976562C26.5168 0.000976562 29.2918 2.77598 29.2918 6.16764C29.2918 9.55931 26.5168 12.3343 23.1252 12.3343Z" fill="#FF6A3B"/>
<path d="M13.8752 12.3343C10.4835 12.3343 7.70852 9.55931 7.70852 6.16764C7.70852 2.77598 10.4835 0.000976562 13.8752 0.000976562C17.2669 0.000976562 20.0419 2.77598 20.0419 6.16764C20.0419 7.09264 19.4252 7.70931 18.5002 7.70931C17.5752 7.70931 16.9585 7.09264 16.9585 6.16764C16.9585 4.47181 15.571 3.08431 13.8752 3.08431C12.1794 3.08431 10.7919 4.47181 10.7919 6.16764C10.7919 7.86348 12.1794 9.25098 13.8752 9.25098C14.8002 9.25098 15.4169 9.86764 15.4169 10.7926C15.4169 11.7176 14.8002 12.3343 13.8752 12.3343Z" fill="#FF6A3B"/>
<path d="M18.5002 15.4176C17.5752 15.4176 16.9585 14.801 16.9585 13.876V6.16764C16.9585 5.24264 17.5752 4.62598 18.5002 4.62598C19.4252 4.62598 20.0418 5.24264 20.0418 6.16764V13.876C20.0418 14.801 19.4252 15.4176 18.5002 15.4176Z" fill="#FF6A3B"/>
</g>
<defs>
<clipPath id="clip0_105_11">
<rect width="37" height="37" fill="white" transform="translate(0.000183105 0.000976562)"/>
</clipPath>
</defs>
</svg>
