<svg width="177" height="23" viewBox="0 0 177 23" fill="none" xmlns="http://www.w3.org/2000/svg">
<path d="M14.751 8.80256L11.1914 22.0008H6.12305L0.600586 0.86311H6.15234L9.00879 15.1453H9.12598L12.6562 0.86311H16.9629L20.4932 15.1453H20.6104L23.4668 0.86311H29.0186L23.4961 22.0008H18.4277L14.8682 8.80256H14.751ZM45.7031 17.6649V22.0008H31.2158V0.86311H45.7031V5.19905H36.5918V9.40315H45.1611V13.3582H36.5918V17.6649H45.7031ZM58.8281 22.0008H48.7354V0.86311H58.5645C60.6445 0.86311 62.2754 1.33186 63.457 2.26936C64.6387 3.20686 65.2295 4.49592 65.2295 6.13655C65.2295 7.30842 64.834 8.32405 64.043 9.18342C63.2617 10.0428 62.2803 10.5555 61.0986 10.7215V10.8387C62.5439 10.9071 63.7549 11.4198 64.7314 12.3768C65.7178 13.3338 66.2109 14.5106 66.2109 15.9071C66.2109 17.7625 65.542 19.242 64.2041 20.3455C62.876 21.449 61.084 22.0008 58.8281 22.0008ZM54.1113 4.6717V9.47639H56.8799C57.8564 9.47639 58.6182 9.26155 59.165 8.83186C59.7217 8.39241 60 7.79182 60 7.0301C60 6.28791 59.7461 5.71174 59.2383 5.30159C58.7402 4.88166 58.042 4.6717 57.1436 4.6717H54.1113ZM54.1113 18.1922H57.3047C58.418 18.1922 59.2676 17.9578 59.8535 17.4891C60.4492 17.0106 60.7471 16.327 60.7471 15.4383C60.7471 14.5789 60.4443 13.9149 59.8389 13.4461C59.2334 12.9774 58.3789 12.743 57.2754 12.743H54.1113V18.1922ZM75.0879 0.86311H82.1924C85.3271 0.86311 87.7734 1.79573 89.5312 3.66096C91.2891 5.51643 92.168 8.10432 92.168 11.4246C92.168 14.7547 91.2891 17.3524 89.5312 19.2176C87.7832 21.0731 85.3369 22.0008 82.1924 22.0008H75.0879V0.86311ZM77.7246 3.23616V19.6278H82.0166C84.4092 19.6278 86.25 18.9246 87.5391 17.5184C88.8281 16.1024 89.4727 14.0809 89.4727 11.4539C89.4727 8.80745 88.8281 6.7762 87.5391 5.36018C86.2598 3.94416 84.4189 3.23616 82.0166 3.23616H77.7246ZM98.0859 22.0008H95.4492V0.86311H98.0859V22.0008ZM120.015 13.2557C120.015 16.117 119.224 18.3485 117.642 19.95C116.069 21.5516 113.872 22.3524 111.05 22.3524C108.101 22.3524 105.747 21.3563 103.989 19.3641C102.241 17.3621 101.367 14.6815 101.367 11.3221C101.367 8.02131 102.241 5.39436 103.989 3.44123C105.737 1.48811 108.091 0.511547 111.05 0.511547C113.335 0.511547 115.278 1.14143 116.88 2.4012C118.491 3.6512 119.492 5.326 119.883 7.42561H117.114C116.675 5.99983 115.923 4.89631 114.858 4.11506C113.804 3.33381 112.534 2.94319 111.05 2.94319C108.872 2.94319 107.163 3.68538 105.923 5.16975C104.692 6.64436 104.077 8.69026 104.077 11.3074C104.077 13.9637 104.702 16.0633 105.952 17.6063C107.202 19.1492 108.901 19.9207 111.05 19.9207C112.925 19.9207 114.448 19.369 115.62 18.2655C116.792 17.1522 117.378 15.7117 117.378 13.9442V13.5633H111.416V11.2489H120.015V13.2557ZM126.035 22.0008H123.398V0.86311H126.035V22.0008ZM138.12 22.0008H135.483V3.23616H128.818V0.86311H144.785V3.23616H138.12V22.0008ZM158.379 22.0008L156.255 15.951H147.847L145.723 22.0008H142.954L150.747 0.86311H153.354L161.147 22.0008H158.379ZM152.007 4.07112L148.623 13.7098H155.479L152.095 4.07112H152.007ZM176.396 19.6278V22.0008H163.564V0.86311H166.201V19.6278H176.396Z" fill="#221F1C"/>
</svg>
