<svg width="96" height="96" viewBox="0 0 96 96" fill="none" xmlns="http://www.w3.org/2000/svg">
<path d="M65.6452 52.3662C65.291 51.2787 64.7491 50.2585 64.0212 49.3056C63.292 48.3538 62.3865 47.5085 61.3038 46.7698C60.2206 46.0319 58.9508 45.4491 57.4937 45.021C57.0879 44.9135 56.4683 44.7632 55.6742 44.5706C55.3252 44.486 54.9425 44.3932 54.5294 44.2922C54.0816 44.1832 53.6467 44.0728 53.2073 43.9614C52.6979 43.8321 52.1824 43.7013 51.6337 43.5692V31.5637C52.6557 31.8358 53.3657 32.268 54.1235 32.7481C55.745 33.7746 56.7617 35.5308 57.0595 37.9155H64.9147C64.8404 35.8715 64.3866 34.1954 63.5525 32.6896C62.6361 31.0382 61.3975 29.6209 59.8358 28.493C58.2744 27.3663 56.4035 26.5069 54.3422 25.9431C53.447 25.6986 52.6558 25.493 51.6338 25.3545V21.5634H44.3662V25.3297C43.5713 25.4482 42.6461 25.6073 41.8196 25.8123C39.8617 26.2987 38.1417 27.0464 36.6016 28.0566C35.0605 29.0678 33.8362 30.3405 32.8992 31.8752C31.9622 33.4108 31.5011 35.2274 31.5011 37.3259C31.5011 38.4143 31.6608 39.4827 31.9731 40.5321C32.2856 41.5815 32.8182 42.5724 33.5677 43.5052C34.3175 44.4379 35.3272 45.2832 36.5982 46.0411C37.8681 46.7988 39.4036 47.411 41.3194 47.8774C41.8382 48.0084 42.364 48.1351 42.8725 48.2577C43.3977 48.3842 43.9045 48.5064 44.3661 48.6242V62.2039C43.117 61.8724 41.8805 61.3637 40.8824 60.6733C39.8411 59.9548 39.058 59.0888 38.4752 57.9611C37.9326 56.9131 37.6721 55.6303 37.6341 54.2676H29.831C29.9099 56.6523 30.4272 58.7524 31.3835 60.5553C32.3827 62.4408 33.7152 63.9575 35.3812 65.1614C37.0461 66.3666 38.946 67.2458 41.195 67.8289C42.204 68.0906 43.3442 68.2786 44.3662 68.4228V72.4366H51.6338V68.5144C52.7694 68.393 53.7865 68.2089 54.8732 67.9603C56.9969 67.4751 58.9209 66.7071 60.5869 65.6578C62.2519 64.6086 63.6099 63.2586 64.6308 61.606C65.6505 59.9548 66.1689 57.9626 66.1689 55.6308C66.169 54.5432 65.9985 53.4546 65.6452 52.3662ZM44.3662 41.7422C43.0035 41.3172 41.6508 40.7102 40.7266 39.9198C39.7476 39.0846 39.2875 37.9288 39.2875 36.4513C39.2875 35.4019 39.5616 34.5276 40.0829 33.8279C40.6029 33.1283 41.2084 32.5745 41.9997 32.1665C42.7015 31.8043 43.5713 31.5345 44.3662 31.3559V41.7422ZM57.8683 58.7498C57.5345 59.5075 56.994 60.1778 56.2441 60.761C55.4944 61.3438 54.4563 61.8202 53.2488 62.1892C52.7378 62.3456 52.315 62.4667 51.6337 62.5566V50.3936C52.7693 50.6916 53.6982 50.9991 54.6232 51.3169C55.5387 51.6285 56.4115 52.1621 57.1824 52.9199C57.9529 53.678 58.3531 54.8538 58.3531 56.4469C58.3532 57.2248 58.2012 57.9919 57.8683 58.7498Z" fill="#FF6A3B"/>
<path d="M65.6452 52.3662C65.291 51.2787 64.7491 50.2585 64.0212 49.3056C63.292 48.3538 62.3865 47.5085 61.3038 46.7698C60.2206 46.0319 58.9508 45.4491 57.4937 45.021C57.0879 44.9135 56.4683 44.7632 55.6742 44.5706C55.3252 44.486 54.9425 44.3932 54.5294 44.2922C54.0816 44.1832 53.6467 44.0728 53.2073 43.9614C52.6979 43.8321 52.1824 43.7013 51.6337 43.5692V31.5637C52.6557 31.8358 53.3657 32.268 54.1235 32.7481C55.745 33.7746 56.7617 35.5308 57.0595 37.9155H64.9147C64.8404 35.8715 64.3866 34.1954 63.5525 32.6896C62.6361 31.0382 61.3975 29.6209 59.8358 28.493C58.2744 27.3663 56.4035 26.5069 54.3422 25.9431C53.447 25.6986 52.6558 25.493 51.6338 25.3545V21.5634H44.3662V25.3297C43.5713 25.4482 42.6461 25.6073 41.8196 25.8123C39.8617 26.2987 38.1417 27.0464 36.6016 28.0566C35.0605 29.0678 33.8362 30.3405 32.8992 31.8752C31.9622 33.4108 31.5011 35.2274 31.5011 37.3259C31.5011 38.4143 31.6608 39.4827 31.9731 40.5321C32.2856 41.5815 32.8182 42.5724 33.5677 43.5052C34.3175 44.4379 35.3272 45.2832 36.5982 46.0411C37.8681 46.7988 39.4036 47.411 41.3194 47.8774C41.8382 48.0084 42.364 48.1351 42.8725 48.2577C43.3977 48.3842 43.9045 48.5064 44.3661 48.6242V62.2039C43.117 61.8724 41.8805 61.3637 40.8824 60.6733C39.8411 59.9548 39.058 59.0888 38.4752 57.9611C37.9326 56.9131 37.6721 55.6303 37.6341 54.2676H29.831C29.9099 56.6523 30.4272 58.7524 31.3835 60.5553C32.3827 62.4408 33.7152 63.9575 35.3812 65.1614C37.0461 66.3666 38.946 67.2458 41.195 67.8289C42.204 68.0906 43.3442 68.2786 44.3662 68.4228V72.4366H51.6338V68.5144C52.7694 68.393 53.7865 68.2089 54.8732 67.9603C56.9969 67.4751 58.9209 66.7071 60.5869 65.6578C62.2519 64.6086 63.6099 63.2586 64.6308 61.606C65.6505 59.9548 66.1689 57.9626 66.1689 55.6308C66.169 54.5432 65.9985 53.4546 65.6452 52.3662ZM44.3662 41.7422C43.0035 41.3172 41.6508 40.7102 40.7266 39.9198C39.7476 39.0846 39.2875 37.9288 39.2875 36.4513C39.2875 35.4019 39.5616 34.5276 40.0829 33.8279C40.6029 33.1283 41.2084 32.5745 41.9997 32.1665C42.7015 31.8043 43.5713 31.5345 44.3662 31.3559V41.7422ZM57.8683 58.7498C57.5345 59.5075 56.994 60.1778 56.2441 60.761C55.4944 61.3438 54.4563 61.8202 53.2488 62.1892C52.7378 62.3456 52.315 62.4667 51.6337 62.5566V50.3936C52.7693 50.6916 53.6982 50.9991 54.6232 51.3169C55.5387 51.6285 56.4115 52.1621 57.1824 52.9199C57.9529 53.678 58.3531 54.8538 58.3531 56.4469C58.3532 57.2248 58.2012 57.9919 57.8683 58.7498Z" stroke="#221F1C"/>
<circle cx="48" cy="48" r="46.5" stroke="#221F1C" stroke-width="3"/>
</svg>
